<svg xmlns="http://www.w3.org/2000/svg">

  <symbol id="logo" viewBox="0 0 40 40">
    <path d="M20,26a6,6,0,1,0-6-6h0A6,6,0,0,0,20,26ZM20,0a20,20,0,0,0-6,.92V12a10,10,0,1,1-4,8V2.67A20,20,0,1,0,20,0Z"/>
  </symbol>

  <symbol id="noise" viewBox="0 0 60 60">
    <path d="m18 0c-9.925 0-18 8.748-18 19.549.03819386 2.5043778.72485482 4.9560985 1.993 7.116.5992406 1.0222536 1.11234558 2.092616 1.534 3.2.27964082.8138953.01123513 1.7155455-.668 2.244-1.18174374.9447425-1.86653676 2.3780559-1.859 3.891-.00474262 1.6625215.81717917 3.2186634 2.193 4.152.49462827.3360251.79548602.8911393.807 1.489v8.359c0 5.514 4.037 10 9 10s9-4.486 9-10c-.0151885-4.1184474 1.7757406-8.0365615 4.9-10.72 5.8568631-4.8868272 9.199657-12.1528122 9.1-19.78 0-10.752-8.075-19.5-18-19.5zm7.6 37.761c-3.5690404 3.0626345-5.6158785 7.5360725-5.6 12.239 0 4.411-3.141 8-7 8s-7-3.589-7-8v-8.359c-.01620182-1.2385055-.62394239-2.3945136-1.635-3.11-.85435865-.5579765-1.36810973-1.5105801-1.365-2.531-.00686155-.9198384.41445209-1.7905533 1.14-2.356 1.33140873-1.066671 1.83976683-2.86038 1.266-4.467-.46056114-1.2113301-1.02151176-2.3820678-1.677-3.5-1.10201369-1.874322-1.69783317-4.0029379-1.729-6.177 0-9.649 7.178-17.5 16-17.5s16 7.851 16 17.5c.0915428 7.0411079-2.9939568 13.7487636-8.4 18.261z"/>
    <path d="m18 5c-5.573 0-10.325 3.952-12.17 9.476-.013.033-.022.065-.032.1-.5272418 1.6040759-.79724954 3.2814989-.8 4.97 0 1.2 0 4.87 2.293 7.163.39237889.3789722 1.01608478.3735524 1.40181858-.0121814.38573379-.3857338.39115363-1.0094397.01218142-1.4018186-.82155739-.9132539-1.3491204-2.0527063-1.514-3.27.161-.01.32-.023.487-.023 4.59-.002 8.322 4.198 8.322 9.358 0 .479-.023.929-.06 1.373-.4978832.5315763-1.0275205 1.0324943-1.586 1.5-2.9125701 2.3851948-4.52684196 6.0063691-4.354 9.767 0 .5522847.4477153 1 1 1s1-.4477153 1-1c-.1720387-3.1707753 1.1831952-6.2325036 3.646-8.237 3.5281209-2.707959 5.5239529-6.9587008 5.354-11.403 0-6.26-4.71-11.36-10.5-11.36-.66513337.0017525-1.32831115.0721251-1.979.21 1.7381919-3.68980728 5.4020384-6.09011184 9.479-6.21 6.065 0 11 5.627 11 12.544.0786047 5.4490737-2.2845859 10.6475796-6.442 14.171-.138.119-.291.247-.457.386-1.99 1.654-6.129 5.1-7.095 13.789-.0584247.5475087.3367459 1.0392368.884 1.1.0364619.0052945.0731811.0086327.11.01.5093591-.0004745.9369707-.3837316.993-.89.877-7.89 4.46-10.871 6.386-12.472.177-.148.34-.284.486-.41 4.602707-3.8990033 7.2200661-9.6524245 7.135-15.684 0-8.02-5.832-14.544-13-14.544zm-7.5 10c4.687 0 8.5 4.2 8.5 9.36.0453636 1.8921894-.3303607 3.7708112-1.1 5.5-.671-5.56-4.993-9.86-10.22-9.86-.231 0-.453.017-.676.033 0-.192 0-.359 0-.489.00036187-1.3373184.19162438-2.6677377.568-3.951.92726505-.3890787 1.92241707-.5906241 2.928-.593z"/>
    <path d="m50 23c.0767062-3.1517392 1.4133481-6.1412643 3.711-8.3.2790877-.2478662.3968971-.6305358.3055372-.9924487-.0913598-.361913-.3766793-.6428183-.7399727-.7285245-.3632933-.0857062-.7440796.038055-.9875645.3209732-2.6707148 2.5286775-4.215708 6.0228332-4.289 9.7.073292 3.6771668 1.6182852 7.1713225 4.289 9.7.2434849.2829182.6242712.4066794.9875645.3209732.3632934-.0857062.6486129-.3666115.7399727-.7285245.0913599-.3619129-.0264495-.7445825-.3055372-.9924487-2.2976519-2.1587357-3.6342938-5.1482608-3.711-8.3z"/>
    <path d="m56.665 17.253c-.1981032-.1763985-.4581747-.2668617-.7229856-.2514832-.2648108.0153786-.5126623.1353387-.6890144.3334832-3.0038043 3.1793913-3.0038043 8.1506087 0 11.33.2375816.2668774.5994935.386734.9494069.314421s.6346682-.3258096.747-.665.0351747-.7125436-.2024069-.979421c-2.3292957-2.4206558-2.3292957-6.2493442 0-8.67.1763985-.1981032.2668617-.4581747.2514832-.7229856-.0153786-.2648108-.1353387-.5126623-.3334832-.6890144z"/>
    <path d="m59.743 20.331c-.3695287-.4102424-1.0016135-.4433686-1.412-.074-.8404607.6621414-1.3309783 1.6730443-1.3309783 2.743s.4905176 2.0808586 1.3309783 2.743c.2641632.2474727.6414391.3328718.9864254.2232844.3449863-.1095873.6038197-.397051.6767457-.7516024.072926-.3545515-.0514414-.7208339-.3251711-.957682-.3877047-.3080639-.6300126-.7633419-.669-1.257.0389874-.4936581.2812953-.9489361.669-1.257.4102424-.3695287.4433686-1.0016135.074-1.412z"/>
    <path d="m45 23c0-4.4 1.971-8.652 5.7-12.284.2558022-.2500859.3587539-.6176437.2700742-.9642178-.0886796-.34657414-.3555181-.61951181-.7-.71600002-.3444818-.09648821-.714272-.00186811-.9700742.24821782-4.12 4.016-6.3 8.759-6.3 13.716s2.18 9.7 6.3 13.716c.3954359.3865993 1.0294007.3794359 1.416-.016s.3794359-1.0294007-.016-1.416c-3.729-3.632-5.7-7.884-5.7-12.284z"/>
    <path d="m40 23c0-5.494 2.322-10.786 6.717-15.3.2500859-.25615943.3445154-.62627975.2477178-.97094021-.0967976-.34466047-.3701165-.61149896-.717-.7s-.7146319.01478078-.9647178.27094021c-4.764 4.9-7.283 10.675-7.283 16.7s2.519 11.8 7.283 16.7c.3865993.3959882 1.0210118.4035993 1.417.017s.4035993-1.0210118.017-1.417c-4.395-4.514-6.717-9.806-6.717-15.3z"/>
  </symbol>

  <symbol id="charging" viewBox="0 0 409.6 409.6">
    <path d="M275.483,34.133H134.117c-15.607,0-28.303,12.696-28.303,28.303v318.86c0,15.607,12.696,28.303,28.303,28.303h141.367,c15.607,0,28.303-12.696,28.303-28.303V62.437C303.787,46.829,291.091,34.133,275.483,34.133z M290.133,381.297,c0,8.076-6.574,14.65-14.65,14.65H134.117c-8.076,0-14.65-6.574-14.65-14.65V62.437c0-8.076,6.574-14.65,14.65-14.65h141.367,c8.076,0,14.65,6.574,14.65,14.65V381.297z"/>
    <path d="M242.347,0h-75.093c-3.77,0-6.827,3.057-6.827,6.827V40.96c0,3.77,3.057,6.827,6.827,6.827h75.093,c3.77,0,6.827-3.057,6.827-6.827V6.827C249.173,3.057,246.117,0,242.347,0z M235.52,34.133h-61.44v-20.48h61.44V34.133z"/>
    <path d="M254.93,187.479c-1.253-1.971-3.424-3.161-5.757-3.161h-40.96v-61.44c0-3.2-2.224-5.97-5.347-6.663,c-3.152-0.69-6.313,0.877-7.666,3.777l-47.787,102.4c-0.986,2.113-0.823,4.588,0.43,6.554c1.253,1.971,3.424,3.161,5.757,3.161,h40.96v61.44c0,3.2,2.224,5.97,5.347,6.663c0.497,0.111,0.993,0.164,1.483,0.164c2.606,0,5.043-1.5,6.183-3.941l47.787-102.4,C256.346,191.92,256.183,189.445,254.93,187.479z M194.56,218.453h-30.24l30.24-64.804V218.453z M208.213,262.777v-64.804h30.24,L208.213,262.777z"/>
  </symbol>

  <symbol id="plug" viewBox="0 0 512 512">
    <path d="M391.533,109.933h-25.6V24.6c0-14.507-11.093-25.6-25.6-25.6c-14.507,0-25.6,11.093-25.6,25.6v85.333H195.267V24.6,c0-14.507-11.093-25.6-25.6-25.6c-14.507,0-25.6,11.093-25.6,25.6v85.333h-25.6c-5.12,0-8.533,3.413-8.533,8.533v64.853,c0,42.667,16.213,83.627,45.227,115.2c25.6,29.013,40.107,66.56,40.107,104.96v22.187c0,23.893,18.773,42.667,42.667,42.667,h8.533v34.133c0,5.12,3.413,8.533,8.533,8.533c5.12,0,8.533-3.413,8.533-8.533v-34.133h8.533,c23.893,0,42.667-18.773,42.667-42.667v-21.333c0-39.253,13.653-75.947,40.107-104.96,c29.013-31.573,45.227-73.387,45.227-116.053v-64.853C400.067,113.347,396.653,109.933,391.533,109.933z M331.8,24.6,c0-5.12,3.413-8.533,8.533-8.533s8.533,3.413,8.533,8.533v85.333H331.8V24.6z M161.133,24.6c0-4.267,3.413-8.533,8.533-8.533,c5.12,0,8.533,3.413,8.533,8.533v85.333h-17.067V24.6z M383,182.467c0,39.253-13.653,75.947-40.107,104.96,C313.88,319,297.667,360.813,297.667,403.48v22.187c0,14.507-11.093,25.6-25.6,25.6h-34.133c-14.507,0-25.6-11.093-25.6-25.6,v-21.333c0-42.667-16.213-84.48-45.227-116.053C141.507,259.267,127,221.72,127,183.32V127h25.6h34.133h136.533H357.4H383,V182.467z"/>
    <path d="M289.133,220.867h-47.787l45.227-45.227c3.413-3.413,3.413-8.533,0-11.947s-8.533-3.413-11.947,0l-59.733,59.733,c-2.56,2.56-3.413,5.973-1.707,9.387c0.853,3.413,4.267,5.12,7.68,5.12h47.787l-45.227,45.227c-3.413,3.413-3.413,8.533,0,11.947,c1.707,1.707,3.413,2.56,5.973,2.56c2.56,0,4.267-0.853,5.973-2.56l59.733-59.733c2.56-2.56,3.413-5.973,1.707-9.387,C295.96,222.573,292.547,220.867,289.133,220.867z"/>
  </symbol>

  <symbol id="battery" viewBox="0 0 60 60">
    <path d="M42.536,4H36V0H24v4h-6.536C15.554,4,14,5.554,14,7.464v49.072C14,58.446,15.554,60,17.464,60h25.072,C44.446,60,46,58.446,46,56.536V7.464C46,5.554,44.446,4,42.536,4z M16,19h28v12H16V19z M16,33h28v12H16V33z M26,2h8v2h-8V2z M17.464,6H24h12h6.536C43.344,6,44,6.656,44,7.464V17H16V7.464C16,6.656,16.656,6,17.464,6z M42.536,58H17.464 C16.656,58,16,57.344,16,56.536V47h28v9.536C44,57.344,43.344,58,42.536,58z"/>
  </symbol>

  <symbol id="sound" viewBox="0 0 52.026 52.026">
    <path d="M28.404,3.413c-0.976-0.552-2.131-0.534-3.09,0.044c-0.046,0.027-0.09,0.059-0.13,0.093L11.634,15.013H1,c-0.553,0-1,0.447-1,1v19c0,0.266,0.105,0.52,0.293,0.707S0.734,36.013,1,36.013l10.61-0.005l13.543,12.44,c0.05,0.046,0.104,0.086,0.161,0.12c0.492,0.297,1.037,0.446,1.582,0.446c0.517-0.001,1.033-0.134,1.508-0.402,C29.403,48.048,30,47.018,30,45.857V6.169C30,5.008,29.403,3.978,28.404,3.413z M28,45.857c0,0.431-0.217,0.81-0.579,1.015,c-0.155,0.087-0.548,0.255-1,0.026L13,34.569v-4.556c0-0.553-0.447-1-1-1s-1,0.447-1,1v3.996l-9,0.004v-17h9v4c0,0.553,0.447,1,1,1,s1-0.447,1-1v-4.536l13.405-11.34c0.461-0.242,0.86-0.07,1.016,0.018C27.783,5.36,28,5.739,28,6.169V45.857z"/>
    <path d="M38.797,7.066c-0.523-0.177-1.091,0.103-1.269,0.626c-0.177,0.522,0.103,1.091,0.626,1.269,c7.101,2.411,11.872,9.063,11.872,16.553c0,7.483-4.762,14.136-11.849,16.554c-0.522,0.178-0.802,0.746-0.623,1.27,c0.142,0.415,0.53,0.677,0.946,0.677c0.107,0,0.216-0.017,0.323-0.054c7.896-2.693,13.202-10.106,13.202-18.446,C52.026,17.166,46.71,9.753,38.797,7.066z"/>
    <path d="M43.026,25.513c0-5.972-4.009-11.302-9.749-12.962c-0.533-0.151-1.084,0.152-1.238,0.684,c-0.153,0.53,0.152,1.085,0.684,1.238c4.889,1.413,8.304,5.953,8.304,11.04s-3.415,9.627-8.304,11.04,c-0.531,0.153-0.837,0.708-0.684,1.238c0.127,0.438,0.526,0.723,0.961,0.723c0.092,0,0.185-0.013,0.277-0.039,C39.018,36.815,43.026,31.485,43.026,25.513z"/>
  </symbol>

  <symbol id="time" viewBox="0 0 60 60">
    <path d="M31.634,37.989c1.041-0.081,1.99-0.612,2.606-1.459l9.363-12.944c0.287-0.397,0.244-0.945-0.104-1.293,c-0.348-0.347-0.896-0.39-1.293-0.104L29.26,31.555c-0.844,0.614-1.375,1.563-1.456,2.604s0.296,2.06,1.033,2.797,C29.508,37.628,30.413,38,31.354,38C31.447,38,31.54,37.996,31.634,37.989z M29.798,34.315c0.035-0.457,0.269-0.874,0.637-1.142,l7.897-5.713l-5.711,7.895c-0.27,0.371-0.687,0.604-1.144,0.64c-0.455,0.03-0.902-0.128-1.227-0.453,C29.928,35.219,29.762,34.771,29.798,34.315z"/>
    <path d="M54.034,19.564c-0.01-0.021-0.01-0.043-0.021-0.064c-0.012-0.02-0.031-0.031-0.044-0.05,c-1.011-1.734-2.207-3.347-3.565-4.809l2.148-2.147l1.414,1.414l4.242-4.243l-4.242-4.242l-4.243,4.242l1.415,1.415l-2.148,2.147,c-1.462-1.358-3.074-2.555-4.809-3.566c-0.019-0.013-0.03-0.032-0.05-0.044c-0.021-0.012-0.043-0.011-0.064-0.022,c-3.093-1.782-6.568-2.969-10.273-3.404V5h1.5c1.379,0,2.5-1.121,2.5-2.5S36.672,0,35.293,0h-9c-1.379,0-2.5,1.121-2.5,2.5,s1.121,2.5,2.5,2.5h1.5v1.156c-1.08,0.115-2.158,0.291-3.224,0.535c-0.538,0.123-0.875,0.66-0.751,1.198,c0.123,0.538,0.66,0.876,1.198,0.751c0.92-0.211,1.849-0.37,2.78-0.477l1.073-0.083c0.328-0.025,0.63-0.043,0.924-0.057V10,c0,0.553,0.447,1,1,1s1-0.447,1-1V8.03c3.761,0.173,7.305,1.183,10.456,2.845l-0.986,1.707c-0.276,0.479-0.112,1.09,0.366,1.366,c0.157,0.091,0.329,0.134,0.499,0.134c0.346,0,0.682-0.179,0.867-0.5l0.983-1.703c3.129,1.985,5.787,4.643,7.772,7.772,l-1.703,0.983C49.57,20.91,49.406,21.521,49.683,22c0.186,0.321,0.521,0.5,0.867,0.5c0.17,0,0.342-0.043,0.499-0.134l1.707-0.986,c1.685,3.196,2.698,6.798,2.849,10.619H53.63c-0.553,0-1,0.447-1,1s0.447,1,1,1h1.975c-0.151,3.821-1.164,7.423-2.849,10.619,l-1.707-0.986c-0.478-0.276-1.09-0.114-1.366,0.366c-0.276,0.479-0.112,1.09,0.366,1.366l1.703,0.983,c-1.985,3.129-4.643,5.787-7.772,7.772l-0.983-1.703c-0.277-0.48-0.89-0.643-1.366-0.366c-0.479,0.276-0.643,0.888-0.366,1.366,l0.986,1.707c-3.151,1.662-6.695,2.672-10.456,2.845V56c0-0.553-0.447-1-1-1s-1,0.447-1,1v1.976,c-1.597-0.055-3.199-0.255-4.776-0.617c-0.538-0.129-1.075,0.213-1.198,0.751c-0.124,0.538,0.213,1.075,0.751,1.198,C26.568,59.768,28.607,60,30.63,60c0.049,0,0.096-0.003,0.145-0.004c0.007,0,0.012,0.004,0.018,0.004,c0.008,0,0.015-0.005,0.023-0.005c4.807-0.033,9.317-1.331,13.219-3.573c0.031-0.014,0.064-0.021,0.094-0.039,c0.02-0.012,0.031-0.031,0.05-0.044c4.039-2.354,7.414-5.725,9.773-9.761c0.019-0.027,0.043-0.048,0.06-0.078,c0.012-0.021,0.011-0.043,0.021-0.064C56.317,42.476,57.63,37.89,57.63,33S56.317,23.524,54.034,19.564z M53.965,8.251l1.414,1.414,l-1.414,1.415L52.55,9.665L53.965,8.251z M29.793,6.021V3h-3.5c-0.275,0-0.5-0.225-0.5-0.5s0.225-0.5,0.5-0.5h9,c0.275,0,0.5,0.225,0.5,0.5S35.568,3,35.293,3h-3.5v3.021C31.445,6.007,31.113,6,30.793,6c-0.028,0-0.06,0.002-0.088,0.002,C30.68,6.002,30.655,6,30.63,6c-0.164,0-0.328,0.011-0.492,0.014C30.022,6.017,29.913,6.016,29.793,6.021z"/>
    <path d="M21.793,14h-5c-0.553,0-1,0.447-1,1s0.447,1,1,1h5c0.553,0,1-0.447,1-1S22.346,14,21.793,14z"/>
    <path d="M21.793,21h-10c-0.553,0-1,0.447-1,1s0.447,1,1,1h10c0.553,0,1-0.447,1-1S22.346,21,21.793,21z"/>
    <path d="M21.793,28h-15c-0.553,0-1,0.447-1,1s0.447,1,1,1h15c0.553,0,1-0.447,1-1S22.346,28,21.793,28z"/>
    <path d="M21.793,35h-19c-0.553,0-1,0.447-1,1s0.447,1,1,1h19c0.553,0,1-0.447,1-1S22.346,35,21.793,35z"/>
    <path d="M21.793,42h-13c-0.553,0-1,0.447-1,1s0.447,1,1,1h13c0.553,0,1-0.447,1-1S22.346,42,21.793,42z"/>
    <path d="M21.793,49h-7c-0.553,0-1,0.447-1,1s0.447,1,1,1h7c0.553,0,1-0.447,1-1S22.346,49,21.793,49z"/>
  </symbol>

  <symbol id="facebook" viewBox="0 0 512 512">
    <path d="m297.277344 508.667969c-2.132813.347656-4.273438.667969-6.421875.960937 2.148437-.292968 4.289062-.613281 6.421875-.960937zm0 0"/>
    <path d="m302.398438 507.792969c-1.019532.1875-2.039063.359375-3.058594.535156 1.019531-.175781 2.039062-.347656 3.058594-.535156zm0 0"/>
    <path d="m285.136719 510.339844c-2.496094.28125-5.007813.53125-7.527344.742187 2.519531-.210937 5.03125-.460937 7.527344-.742187zm0 0"/>
    <path d="m290.054688 509.738281c-1.199219.160157-2.40625.308594-3.609376.449219 1.203126-.140625 2.410157-.289062 3.609376-.449219zm0 0"/>
    <path d="m309.367188 506.410156c-.898438.191406-1.800782.382813-2.703126.566406.902344-.183593 1.804688-.375 2.703126-.566406zm0 0"/>
    <path d="m326.664062 502.113281c-.726562.207031-1.453124.402344-2.179687.605469.726563-.203125 1.453125-.398438 2.179687-.605469zm0 0"/>
    <path d="m321.433594 503.542969c-.789063.207031-1.582032.417969-2.375.617187.792968-.199218 1.585937-.40625 2.375-.617187zm0 0"/>
    <path d="m314.589844 505.253906c-.835938.195313-1.679688.378906-2.523438.566406.84375-.1875 1.6875-.371093 2.523438-.566406zm0 0"/>
    <path d="m277.527344 511.089844c-1.347656.113281-2.695313.214844-4.046875.304687 1.351562-.089843 2.699219-.191406 4.046875-.304687zm0 0"/>
    <path d="m512 256c0-141.363281-114.636719-256-256-256s-256 114.636719-256 256 114.636719 256 256 256c1.503906 0 3-.03125 4.5-.058594v-199.285156h-55v-64.097656h55v-47.167969c0-54.703125 33.394531-84.476563 82.191406-84.476563 23.367188 0 43.453125 1.742188 49.308594 2.519532v57.171875h-33.648438c-26.546874 0-31.6875 12.617187-31.6875 31.128906v40.824219h63.476563l-8.273437 64.097656h-55.203126v189.453125c107.003907-30.675781 185.335938-129.257813 185.335938-246.109375zm0 0"/>
    <path d="m272.914062 511.429688c-2.664062.171874-5.339843.308593-8.023437.398437 2.683594-.089844 5.359375-.226563 8.023437-.398437zm0 0"/>
    <path d="m264.753906 511.835938c-1.414062.046874-2.832031.082031-4.25.105468 1.417969-.023437 2.835938-.058594 4.25-.105468zm0 0"/>
  </symbol>

  <symbol id="instagram" viewBox="0 0 512 512">
    <path d="m305 256c0 27.0625-21.9375 49-49 49s-49-21.9375-49-49 21.9375-49 49-49 49 21.9375 49 49zm0 0"/>
    <path d="m370.59375 169.304688c-2.355469-6.382813-6.113281-12.160157-10.996094-16.902344-4.742187-4.882813-10.515625-8.640625-16.902344-10.996094-5.179687-2.011719-12.960937-4.40625-27.292968-5.058594-15.503906-.707031-20.152344-.859375-59.402344-.859375-39.253906 0-43.902344.148438-59.402344.855469-14.332031.65625-22.117187 3.050781-27.292968 5.0625-6.386719 2.355469-12.164063 6.113281-16.902344 10.996094-4.882813 4.742187-8.640625 10.515625-11 16.902344-2.011719 5.179687-4.40625 12.964843-5.058594 27.296874-.707031 15.5-.859375 20.148438-.859375 59.402344 0 39.25.152344 43.898438.859375 59.402344.652344 14.332031 3.046875 22.113281 5.058594 27.292969 2.359375 6.386719 6.113281 12.160156 10.996094 16.902343 4.742187 4.882813 10.515624 8.640626 16.902343 10.996094 5.179688 2.015625 12.964844 4.410156 27.296875 5.0625 15.5.707032 20.144532.855469 59.398438.855469 39.257812 0 43.90625-.148437 59.402344-.855469 14.332031-.652344 22.117187-3.046875 27.296874-5.0625 12.820313-4.945312 22.953126-15.078125 27.898438-27.898437 2.011719-5.179688 4.40625-12.960938 5.0625-27.292969.707031-15.503906.855469-20.152344.855469-59.402344 0-39.253906-.148438-43.902344-.855469-59.402344-.652344-14.332031-3.046875-22.117187-5.0625-27.296874zm-114.59375 162.179687c-41.691406 0-75.488281-33.792969-75.488281-75.484375s33.796875-75.484375 75.488281-75.484375c41.6875 0 75.484375 33.792969 75.484375 75.484375s-33.796875 75.484375-75.484375 75.484375zm78.46875-136.3125c-9.742188 0-17.640625-7.898437-17.640625-17.640625s7.898437-17.640625 17.640625-17.640625 17.640625 7.898437 17.640625 17.640625c-.003906 9.742188-7.898437 17.640625-17.640625 17.640625zm0 0"/>
    <path d="m256 0c-141.363281 0-256 114.636719-256 256s114.636719 256 256 256 256-114.636719 256-256-114.636719-256-256-256zm146.113281 316.605469c-.710937 15.648437-3.199219 26.332031-6.832031 35.683593-7.636719 19.746094-23.246094 35.355469-42.992188 42.992188-9.347656 3.632812-20.035156 6.117188-35.679687 6.832031-15.675781.714844-20.683594.886719-60.605469.886719-39.925781 0-44.929687-.171875-60.609375-.886719-15.644531-.714843-26.332031-3.199219-35.679687-6.832031-9.8125-3.691406-18.695313-9.476562-26.039063-16.957031-7.476562-7.339844-13.261719-16.226563-16.953125-26.035157-3.632812-9.347656-6.121094-20.035156-6.832031-35.679687-.722656-15.679687-.890625-20.6875-.890625-60.609375s.167969-44.929688.886719-60.605469c.710937-15.648437 3.195312-26.332031 6.828125-35.683593 3.691406-9.808594 9.480468-18.695313 16.960937-26.035157 7.339844-7.480469 16.226563-13.265625 26.035157-16.957031 9.351562-3.632812 20.035156-6.117188 35.683593-6.832031 15.675781-.714844 20.683594-.886719 60.605469-.886719s44.929688.171875 60.605469.890625c15.648437.710937 26.332031 3.195313 35.683593 6.824219 9.808594 3.691406 18.695313 9.480468 26.039063 16.960937 7.476563 7.34375 13.265625 16.226563 16.953125 26.035157 3.636719 9.351562 6.121094 20.035156 6.835938 35.683593.714843 15.675781.882812 20.683594.882812 60.605469s-.167969 44.929688-.886719 60.605469zm0 0"/>
  </symbol>

  <symbol id="vk" viewBox="0 0 97.75 97.75">
    <path d="M48.875,0C21.883,0,0,21.882,0,48.875S21.883,97.75,48.875,97.75S97.75,75.868,97.75,48.875S75.867,0,48.875,0z M73.667,54.161c2.278,2.225,4.688,4.319,6.733,6.774c0.906,1.086,1.76,2.209,2.41,3.472c0.928,1.801,0.09,3.776-1.522,3.883 l-10.013-0.002c-2.586,0.214-4.644-0.829-6.379-2.597c-1.385-1.409-2.67-2.914-4.004-4.371c-0.545-0.598-1.119-1.161-1.803-1.604 c-1.365-0.888-2.551-0.616-3.333,0.81c-0.797,1.451-0.979,3.059-1.055,4.674c-0.109,2.361-0.821,2.978-3.19,3.089 c-5.062,0.237-9.865-0.531-14.329-3.083c-3.938-2.251-6.986-5.428-9.642-9.025c-5.172-7.012-9.133-14.708-12.692-22.625 c-0.801-1.783-0.215-2.737,1.752-2.774c3.268-0.063,6.536-0.055,9.804-0.003c1.33,0.021,2.21,0.782,2.721,2.037 c1.766,4.345,3.931,8.479,6.644,12.313c0.723,1.021,1.461,2.039,2.512,2.76c1.16,0.796,2.044,0.533,2.591-0.762 c0.35-0.823,0.501-1.703,0.577-2.585c0.26-3.021,0.291-6.041-0.159-9.05c-0.28-1.883-1.339-3.099-3.216-3.455 c-0.956-0.181-0.816-0.535-0.351-1.081c0.807-0.944,1.563-1.528,3.074-1.528l11.313-0.002c1.783,0.35,2.183,1.15,2.425,2.946 l0.01,12.572c-0.021,0.695,0.349,2.755,1.597,3.21c1,0.33,1.66-0.472,2.258-1.105c2.713-2.879,4.646-6.277,6.377-9.794 c0.764-1.551,1.423-3.156,2.063-4.764c0.476-1.189,1.216-1.774,2.558-1.754l10.894,0.013c0.321,0,0.647,0.003,0.965,0.058 c1.836,0.314,2.339,1.104,1.771,2.895c-0.894,2.814-2.631,5.158-4.329,7.508c-1.82,2.516-3.761,4.944-5.563,7.471 C71.48,50.992,71.611,52.155,73.667,54.161z"/>
  </symbol>

  <symbol id="telegram" viewBox="0 0 24 24">
    <path d="m12 24c6.629 0 12-5.371 12-12s-5.371-12-12-12-12 5.371-12 12 5.371 12 12 12zm-6.509-12.26 11.57-4.461c.537-.194 1.006.131.832.943l.001-.001-1.97 9.281c-.146.658-.537.818-1.084.508l-3-2.211-1.447 1.394c-.16.16-.295.295-.605.295l.213-3.053 5.56-5.023c.242-.213-.054-.333-.373-.121l-6.871 4.326-2.962-.924c-.643-.204-.657-.643.136-.953z"/>
  </symbol>
</svg>